<svg width="96" height="30" viewBox="0 0 96 30" fill="none" xmlns="http://www.w3.org/2000/svg">
<path d="M0 10C0 4.47715 4.47715 0 10 0H86C91.5228 0 96 4.47715 96 10V30H10C4.47715 30 0 25.5228 0 20V10Z" fill="#34C759"/>
<path d="M9.04374 20V18.656H10.3597V11.544H9.04374V10.2H14.0137C14.6017 10.2 15.1151 10.3027 15.5537 10.508C15.9924 10.704 16.3331 10.9887 16.5757 11.362C16.8277 11.726 16.9537 12.16 16.9537 12.664V12.804C16.9537 13.252 16.8697 13.6207 16.7017 13.91C16.5337 14.1993 16.3284 14.4233 16.0857 14.582C15.8524 14.7407 15.6284 14.8527 15.4137 14.918V15.142C15.6284 15.198 15.8571 15.31 16.0997 15.478C16.3517 15.6367 16.5617 15.8607 16.7297 16.15C16.9071 16.4393 16.9957 16.8173 16.9957 17.284V17.424C16.9957 17.9653 16.8697 18.4273 16.6177 18.81C16.3657 19.1927 16.0157 19.4867 15.5677 19.692C15.1291 19.8973 14.6204 20 14.0417 20H9.04374ZM11.8857 18.628H13.8597C14.3637 18.628 14.7604 18.5067 15.0497 18.264C15.3391 18.0213 15.4837 17.6853 15.4837 17.256V17.13C15.4837 16.7007 15.3391 16.3647 15.0497 16.122C14.7697 15.8793 14.3731 15.758 13.8597 15.758H11.8857V18.628ZM11.8857 14.372H13.8597C14.3357 14.372 14.7184 14.2553 15.0077 14.022C15.2971 13.7793 15.4417 13.4527 15.4417 13.042V12.902C15.4417 12.4913 15.2971 12.1693 15.0077 11.936C14.7277 11.6933 14.3451 11.572 13.8597 11.572H11.8857V14.372ZM18.7329 20V13.098H20.1749V20H18.7329ZM19.4609 12.16C19.1809 12.16 18.9429 12.0713 18.7469 11.894C18.5603 11.7073 18.4669 11.4693 18.4669 11.18C18.4669 10.8907 18.5603 10.6573 18.7469 10.48C18.9429 10.2933 19.1809 10.2 19.4609 10.2C19.7503 10.2 19.9883 10.2933 20.1749 10.48C20.3616 10.6573 20.4549 10.8907 20.4549 11.18C20.4549 11.4693 20.3616 11.7073 20.1749 11.894C19.9883 12.0713 19.7503 12.16 19.4609 12.16ZM25.549 20.196C24.8583 20.196 24.2423 20.056 23.701 19.776C23.169 19.4867 22.749 19.076 22.441 18.544C22.133 18.012 21.979 17.382 21.979 16.654V16.444C21.979 15.716 22.133 15.0907 22.441 14.568C22.749 14.036 23.169 13.6253 23.701 13.336C24.2423 13.0467 24.8583 12.902 25.549 12.902C26.2396 12.902 26.8556 13.0467 27.397 13.336C27.9383 13.6253 28.363 14.036 28.671 14.568C28.979 15.0907 29.133 15.716 29.133 16.444V16.654C29.133 17.382 28.979 18.012 28.671 18.544C28.363 19.076 27.9383 19.4867 27.397 19.776C26.8556 20.056 26.2396 20.196 25.549 20.196ZM25.549 18.908C26.1836 18.908 26.697 18.7073 27.089 18.306C27.4903 17.8953 27.691 17.3307 27.691 16.612V16.486C27.691 15.7673 27.495 15.2073 27.103 14.806C26.711 14.3953 26.193 14.19 25.549 14.19C24.9236 14.19 24.4103 14.3953 24.009 14.806C23.617 15.2073 23.421 15.7673 23.421 16.486V16.612C23.421 17.3307 23.617 17.8953 24.009 18.306C24.4103 18.7073 24.9236 18.908 25.549 18.908ZM30.9283 20V10.2H32.3703V20H30.9283ZM37.7443 20.196C37.0536 20.196 36.4376 20.056 35.8963 19.776C35.3643 19.4867 34.9443 19.076 34.6363 18.544C34.3283 18.012 34.1743 17.382 34.1743 16.654V16.444C34.1743 15.716 34.3283 15.0907 34.6363 14.568C34.9443 14.036 35.3643 13.6253 35.8963 13.336C36.4376 13.0467 37.0536 12.902 37.7443 12.902C38.435 12.902 39.051 13.0467 39.5923 13.336C40.1336 13.6253 40.5583 14.036 40.8663 14.568C41.1743 15.0907 41.3283 15.716 41.3283 16.444V16.654C41.3283 17.382 41.1743 18.012 40.8663 18.544C40.5583 19.076 40.1336 19.4867 39.5923 19.776C39.051 20.056 38.435 20.196 37.7443 20.196ZM37.7443 18.908C38.379 18.908 38.8923 18.7073 39.2843 18.306C39.6856 17.8953 39.8863 17.3307 39.8863 16.612V16.486C39.8863 15.7673 39.6903 15.2073 39.2983 14.806C38.9063 14.3953 38.3883 14.19 37.7443 14.19C37.119 14.19 36.6056 14.3953 36.2043 14.806C35.8123 15.2073 35.6163 15.7673 35.6163 16.486V16.612C35.6163 17.3307 35.8123 17.8953 36.2043 18.306C36.6056 18.7073 37.119 18.908 37.7443 18.908ZM42.7876 16.584V16.374C42.7876 15.646 42.9322 15.0253 43.2216 14.512C43.5202 13.9987 43.9122 13.602 44.3976 13.322C44.8829 13.042 45.4149 12.902 45.9936 12.902C46.6656 12.902 47.1789 13.028 47.5336 13.28C47.8976 13.532 48.1636 13.8027 48.3316 14.092H48.5556V13.098H49.9556V21.414C49.9556 21.834 49.8296 22.17 49.5776 22.422C49.3349 22.674 48.9989 22.8 48.5696 22.8H43.9216V21.54H48.1216C48.3922 21.54 48.5276 21.4 48.5276 21.12V18.922H48.3036C48.2009 19.09 48.0562 19.2627 47.8696 19.44C47.6829 19.6173 47.4356 19.762 47.1276 19.874C46.8289 19.986 46.4509 20.042 45.9936 20.042C45.4149 20.042 44.8782 19.9067 44.3836 19.636C43.8982 19.356 43.5109 18.9593 43.2216 18.446C42.9322 17.9233 42.7876 17.3027 42.7876 16.584ZM46.3856 18.782C47.0109 18.782 47.5242 18.586 47.9256 18.194C48.3362 17.7927 48.5416 17.242 48.5416 16.542V16.416C48.5416 15.6973 48.3409 15.1467 47.9396 14.764C47.5382 14.372 47.0202 14.176 46.3856 14.176C45.7696 14.176 45.2562 14.372 44.8456 14.764C44.4442 15.1467 44.2436 15.6973 44.2436 16.416V16.542C44.2436 17.242 44.4442 17.7927 44.8456 18.194C45.2562 18.586 45.7696 18.782 46.3856 18.782ZM52.8766 22.8V21.54H56.7266C56.988 21.54 57.1186 21.4 57.1186 21.12V18.992H56.8946C56.8106 19.1787 56.68 19.3607 56.5026 19.538C56.3346 19.706 56.106 19.846 55.8166 19.958C55.5273 20.07 55.1633 20.126 54.7246 20.126C54.202 20.126 53.7353 20.0093 53.3246 19.776C52.914 19.5427 52.592 19.2113 52.3586 18.782C52.1253 18.3527 52.0086 17.844 52.0086 17.256V13.098H53.4506V17.144C53.4506 17.7413 53.6 18.1847 53.8986 18.474C54.1973 18.754 54.6126 18.894 55.1446 18.894C55.7326 18.894 56.204 18.698 56.5586 18.306C56.9226 17.914 57.1046 17.3447 57.1046 16.598V13.098H58.5466V21.414C58.5466 21.834 58.4206 22.17 58.1686 22.422C57.926 22.674 57.59 22.8 57.1606 22.8H52.8766Z" fill="black"/>
</svg>
