<svg width="114" height="30" viewBox="0 0 114 30" fill="none" xmlns="http://www.w3.org/2000/svg">
<path d="M0 10C0 4.47715 4.47715 0 10 0H104C109.523 0 114 4.47715 114 10V30H10C4.47716 30 0 25.5228 0 20V10Z" fill="#FF2D55"/>
<path d="M13.161 20.196C11.9664 20.196 11.019 19.86 10.319 19.188C9.61902 18.5067 9.26902 17.5267 9.26902 16.248V13.952C9.26902 12.6733 9.61902 11.698 10.319 11.026C11.019 10.3447 11.9664 10.004 13.161 10.004C14.337 10.004 15.2424 10.3307 15.877 10.984C16.521 11.6373 16.843 12.5287 16.843 13.658V13.742H15.345V13.616C15.345 12.9533 15.163 12.412 14.799 11.992C14.4444 11.572 13.8984 11.362 13.161 11.362C12.4144 11.362 11.831 11.5907 11.411 12.048C10.991 12.496 10.781 13.1213 10.781 13.924V16.276C10.781 17.0693 10.991 17.6947 11.411 18.152C11.831 18.6093 12.4144 18.838 13.161 18.838C13.8984 18.838 14.4444 18.628 14.799 18.208C15.163 17.7787 15.345 17.2373 15.345 16.584V16.346H16.843V16.542C16.843 17.6713 16.521 18.5627 15.877 19.216C15.2424 19.8693 14.337 20.196 13.161 20.196ZM18.5591 20V10.2H20.0011V14.078H20.2251C20.3185 13.9007 20.4491 13.728 20.6171 13.56C20.7945 13.392 21.0231 13.2567 21.3031 13.154C21.5925 13.042 21.9565 12.986 22.3951 12.986C22.9178 12.986 23.3798 13.1027 23.7811 13.336C24.1918 13.5693 24.5138 13.9007 24.7471 14.33C24.9805 14.75 25.0971 15.2587 25.0971 15.856V20H23.6551V15.968C23.6551 15.3707 23.5058 14.932 23.2071 14.652C22.9085 14.3627 22.4978 14.218 21.9751 14.218C21.3778 14.218 20.8971 14.414 20.5331 14.806C20.1785 15.198 20.0011 15.7673 20.0011 16.514V20H18.5591ZM30.3364 20.196C29.6364 20.196 29.0251 20.0513 28.5024 19.762C27.9797 19.4633 27.5691 19.048 27.2704 18.516C26.9811 17.9747 26.8364 17.3493 26.8364 16.64V16.472C26.8364 15.7533 26.9811 15.128 27.2704 14.596C27.5597 14.0547 27.9611 13.6393 28.4744 13.35C28.9971 13.0513 29.5991 12.902 30.2804 12.902C30.9431 12.902 31.5217 13.0513 32.0164 13.35C32.5204 13.6393 32.9124 14.0453 33.1924 14.568C33.4724 15.0907 33.6124 15.702 33.6124 16.402V16.948H28.3064C28.3251 17.5547 28.5257 18.04 28.9084 18.404C29.3004 18.7587 29.7857 18.936 30.3644 18.936C30.9057 18.936 31.3117 18.8147 31.5824 18.572C31.8624 18.3293 32.0771 18.0493 32.2264 17.732L33.4164 18.348C33.2857 18.6093 33.0944 18.8847 32.8424 19.174C32.5997 19.4633 32.2777 19.706 31.8764 19.902C31.4751 20.098 30.9617 20.196 30.3364 20.196ZM28.3204 15.842H32.1424C32.1051 15.3193 31.9184 14.9133 31.5824 14.624C31.2464 14.3253 30.8077 14.176 30.2664 14.176C29.7251 14.176 29.2817 14.3253 28.9364 14.624C28.6004 14.9133 28.3951 15.3193 28.3204 15.842ZM35.3482 20V13.098H36.7622V13.91H36.9862C37.1168 13.6673 37.3268 13.4527 37.6162 13.266C37.9055 13.0793 38.2975 12.986 38.7922 12.986C39.3055 12.986 39.7162 13.0933 40.0242 13.308C40.3415 13.5133 40.5795 13.7793 40.7382 14.106H40.9622C41.1208 13.7887 41.3495 13.5227 41.6482 13.308C41.9562 13.0933 42.3902 12.986 42.9502 12.986C43.3982 12.986 43.7948 13.0793 44.1402 13.266C44.4855 13.4433 44.7608 13.714 44.9662 14.078C45.1715 14.4327 45.2742 14.876 45.2742 15.408V20H43.8322V15.52C43.8322 15.1 43.7155 14.778 43.4822 14.554C43.2582 14.3207 42.9362 14.204 42.5162 14.204C42.0682 14.204 41.7088 14.3487 41.4382 14.638C41.1675 14.9273 41.0322 15.3427 41.0322 15.884V20H39.5902V15.52C39.5902 15.1 39.4735 14.778 39.2402 14.554C39.0162 14.3207 38.6942 14.204 38.2742 14.204C37.8262 14.204 37.4668 14.3487 37.1962 14.638C36.9255 14.9273 36.7902 15.3427 36.7902 15.884V20H35.3482ZM47.3521 20V13.098H48.7941V20H47.3521ZM48.0801 12.16C47.8001 12.16 47.5621 12.0713 47.3661 11.894C47.1794 11.7073 47.0861 11.4693 47.0861 11.18C47.0861 10.8907 47.1794 10.6573 47.3661 10.48C47.5621 10.2933 47.8001 10.2 48.0801 10.2C48.3694 10.2 48.6074 10.2933 48.7941 10.48C48.9808 10.6573 49.0741 10.8907 49.0741 11.18C49.0741 11.4693 48.9808 11.7073 48.7941 11.894C48.6074 12.0713 48.3694 12.16 48.0801 12.16ZM53.7621 20.196C52.8848 20.196 52.1568 20 51.5781 19.608C50.9995 19.216 50.6448 18.6233 50.5141 17.83L51.8581 17.508C51.9328 17.8907 52.0588 18.194 52.2361 18.418C52.4135 18.642 52.6328 18.8007 52.8941 18.894C53.1648 18.9873 53.4541 19.034 53.7621 19.034C54.2195 19.034 54.5695 18.9453 54.8121 18.768C55.0641 18.5907 55.1901 18.362 55.1901 18.082C55.1901 17.802 55.0735 17.5967 54.8401 17.466C54.6068 17.3353 54.2615 17.228 53.8041 17.144L53.3281 17.06C52.8615 16.976 52.4368 16.8547 52.0541 16.696C51.6715 16.5373 51.3681 16.318 51.1441 16.038C50.9201 15.758 50.8081 15.3987 50.8081 14.96C50.8081 14.3067 51.0508 13.8027 51.5361 13.448C52.0215 13.084 52.6655 12.902 53.4681 12.902C54.2428 12.902 54.8775 13.0793 55.3721 13.434C55.8761 13.7793 56.2028 14.2507 56.3521 14.848L55.0081 15.226C54.9241 14.806 54.7468 14.512 54.4761 14.344C54.2055 14.1667 53.8695 14.078 53.4681 14.078C53.0761 14.078 52.7681 14.1527 52.5441 14.302C52.3201 14.442 52.2081 14.6427 52.2081 14.904C52.2081 15.184 52.3155 15.3893 52.5301 15.52C52.7541 15.6507 53.0528 15.7487 53.4261 15.814L53.9161 15.898C54.4108 15.982 54.8635 16.0987 55.2741 16.248C55.6848 16.3973 56.0068 16.612 56.2401 16.892C56.4828 17.172 56.6041 17.5453 56.6041 18.012C56.6041 18.7027 56.3475 19.2393 55.8341 19.622C55.3208 20.0047 54.6301 20.196 53.7621 20.196ZM60.7292 20C60.3092 20 59.9732 19.874 59.7212 19.622C59.4785 19.37 59.3572 19.034 59.3572 18.614V14.316H57.4532V13.098H59.3572V10.816H60.7992V13.098H62.8572V14.316H60.7992V18.362C60.7992 18.642 60.9299 18.782 61.1912 18.782H62.6332V20H60.7292ZM64.5513 20V13.098H65.9653V13.91H66.1893C66.3013 13.6207 66.4786 13.4107 66.7213 13.28C66.9733 13.14 67.2813 13.07 67.6453 13.07H68.4713V14.372H67.5893C67.1226 14.372 66.74 14.5027 66.4413 14.764C66.1426 15.016 65.9933 15.408 65.9933 15.94V20H64.5513ZM70.7634 22.8V21.54H74.6134C74.8747 21.54 75.0054 21.4 75.0054 21.12V18.992H74.7814C74.6974 19.1787 74.5667 19.3607 74.3894 19.538C74.2214 19.706 73.9927 19.846 73.7034 19.958C73.414 20.07 73.05 20.126 72.6114 20.126C72.0887 20.126 71.622 20.0093 71.2114 19.776C70.8007 19.5427 70.4787 19.2113 70.2454 18.782C70.012 18.3527 69.8954 17.844 69.8954 17.256V13.098H71.3374V17.144C71.3374 17.7413 71.4867 18.1847 71.7854 18.474C72.084 18.754 72.4994 18.894 73.0314 18.894C73.6194 18.894 74.0907 18.698 74.4454 18.306C74.8094 17.914 74.9914 17.3447 74.9914 16.598V13.098H76.4334V21.414C76.4334 21.834 76.3074 22.17 76.0554 22.422C75.8127 22.674 75.4767 22.8 75.0474 22.8H70.7634Z" fill="black"/>
</svg>
