<svg width="125" height="30" viewBox="0 0 125 30" fill="none" xmlns="http://www.w3.org/2000/svg">
<path d="M0 10C0 4.47715 4.47715 0 10 0H115C120.523 0 125 4.47715 125 10V30H10C4.47715 30 0 25.5228 0 20V10Z" fill="#FF8D28"/>
<path d="M9.272 20V10.2H15.446V11.572H10.784V14.386H15.054V15.758H10.784V18.628H15.516V20H9.272ZM17.1343 20V13.098H18.5483V14.134H18.7723C18.903 13.854 19.1363 13.5927 19.4723 13.35C19.8083 13.1073 20.3076 12.986 20.9703 12.986C21.493 12.986 21.955 13.1027 22.3563 13.336C22.767 13.5693 23.089 13.9007 23.3223 14.33C23.5556 14.75 23.6723 15.2587 23.6723 15.856V20H22.2303V15.968C22.2303 15.3707 22.081 14.932 21.7823 14.652C21.4836 14.3627 21.073 14.218 20.5503 14.218C19.953 14.218 19.4723 14.414 19.1083 14.806C18.7536 15.198 18.5763 15.7673 18.5763 16.514V20H17.1343ZM25.4116 16.584V16.374C25.4116 15.646 25.5563 15.0253 25.8456 14.512C26.1443 13.9987 26.5363 13.602 27.0216 13.322C27.5069 13.042 28.0389 12.902 28.6176 12.902C29.2896 12.902 29.8029 13.028 30.1576 13.28C30.5216 13.532 30.7876 13.8027 30.9556 14.092H31.1796V13.098H32.5796V21.414C32.5796 21.834 32.4536 22.17 32.2016 22.422C31.9589 22.674 31.6229 22.8 31.1936 22.8H26.5456V21.54H30.7456C31.0163 21.54 31.1516 21.4 31.1516 21.12V18.922H30.9276C30.8249 19.09 30.6803 19.2627 30.4936 19.44C30.3069 19.6173 30.0596 19.762 29.7516 19.874C29.4529 19.986 29.0749 20.042 28.6176 20.042C28.0389 20.042 27.5023 19.9067 27.0076 19.636C26.5223 19.356 26.1349 18.9593 25.8456 18.446C25.5563 17.9233 25.4116 17.3027 25.4116 16.584ZM29.0096 18.782C29.6349 18.782 30.1483 18.586 30.5496 18.194C30.9603 17.7927 31.1656 17.242 31.1656 16.542V16.416C31.1656 15.6973 30.9649 15.1467 30.5636 14.764C30.1623 14.372 29.6443 14.176 29.0096 14.176C28.3936 14.176 27.8803 14.372 27.4696 14.764C27.0683 15.1467 26.8676 15.6973 26.8676 16.416V16.542C26.8676 17.242 27.0683 17.7927 27.4696 18.194C27.8803 18.586 28.3936 18.782 29.0096 18.782ZM34.7027 20V13.098H36.1447V20H34.7027ZM35.4307 12.16C35.1507 12.16 34.9127 12.0713 34.7167 11.894C34.53 11.7073 34.4367 11.4693 34.4367 11.18C34.4367 10.8907 34.53 10.6573 34.7167 10.48C34.9127 10.2933 35.1507 10.2 35.4307 10.2C35.72 10.2 35.958 10.2933 36.1447 10.48C36.3313 10.6573 36.4247 10.8907 36.4247 11.18C36.4247 11.4693 36.3313 11.7073 36.1447 11.894C35.958 12.0713 35.72 12.16 35.4307 12.16ZM38.2847 20V13.098H39.6987V14.134H39.9227C40.0534 13.854 40.2867 13.5927 40.6227 13.35C40.9587 13.1073 41.458 12.986 42.1207 12.986C42.6434 12.986 43.1054 13.1027 43.5067 13.336C43.9174 13.5693 44.2394 13.9007 44.4727 14.33C44.706 14.75 44.8227 15.2587 44.8227 15.856V20H43.3807V15.968C43.3807 15.3707 43.2314 14.932 42.9327 14.652C42.634 14.3627 42.2234 14.218 41.7007 14.218C41.1034 14.218 40.6227 14.414 40.2587 14.806C39.904 15.198 39.7267 15.7673 39.7267 16.514V20H38.2847ZM50.062 20.196C49.362 20.196 48.7507 20.0513 48.228 19.762C47.7053 19.4633 47.2947 19.048 46.996 18.516C46.7067 17.9747 46.562 17.3493 46.562 16.64V16.472C46.562 15.7533 46.7067 15.128 46.996 14.596C47.2853 14.0547 47.6867 13.6393 48.2 13.35C48.7227 13.0513 49.3247 12.902 50.006 12.902C50.6687 12.902 51.2473 13.0513 51.742 13.35C52.246 13.6393 52.638 14.0453 52.918 14.568C53.198 15.0907 53.338 15.702 53.338 16.402V16.948H48.032C48.0507 17.5547 48.2513 18.04 48.634 18.404C49.026 18.7587 49.5113 18.936 50.09 18.936C50.6313 18.936 51.0373 18.8147 51.308 18.572C51.588 18.3293 51.8027 18.0493 51.952 17.732L53.142 18.348C53.0113 18.6093 52.82 18.8847 52.568 19.174C52.3253 19.4633 52.0033 19.706 51.602 19.902C51.2007 20.098 50.6873 20.196 50.062 20.196ZM48.046 15.842H51.868C51.8307 15.3193 51.644 14.9133 51.308 14.624C50.972 14.3253 50.5333 14.176 49.992 14.176C49.4507 14.176 49.0073 14.3253 48.662 14.624C48.326 14.9133 48.1207 15.3193 48.046 15.842ZM58.2378 20.196C57.5378 20.196 56.9264 20.0513 56.4038 19.762C55.8811 19.4633 55.4704 19.048 55.1718 18.516C54.8824 17.9747 54.7378 17.3493 54.7378 16.64V16.472C54.7378 15.7533 54.8824 15.128 55.1718 14.596C55.4611 14.0547 55.8624 13.6393 56.3758 13.35C56.8984 13.0513 57.5004 12.902 58.1818 12.902C58.8444 12.902 59.4231 13.0513 59.9178 13.35C60.4218 13.6393 60.8138 14.0453 61.0938 14.568C61.3738 15.0907 61.5138 15.702 61.5138 16.402V16.948H56.2078C56.2264 17.5547 56.4271 18.04 56.8098 18.404C57.2018 18.7587 57.6871 18.936 58.2658 18.936C58.8071 18.936 59.2131 18.8147 59.4838 18.572C59.7638 18.3293 59.9784 18.0493 60.1278 17.732L61.3178 18.348C61.1871 18.6093 60.9958 18.8847 60.7438 19.174C60.5011 19.4633 60.1791 19.706 59.7778 19.902C59.3764 20.098 58.8631 20.196 58.2378 20.196ZM56.2218 15.842H60.0438C60.0064 15.3193 59.8198 14.9133 59.4838 14.624C59.1478 14.3253 58.7091 14.176 58.1678 14.176C57.6264 14.176 57.1831 14.3253 56.8378 14.624C56.5018 14.9133 56.2964 15.3193 56.2218 15.842ZM63.2495 20V13.098H64.6635V13.91H64.8875C64.9995 13.6207 65.1769 13.4107 65.4195 13.28C65.6715 13.14 65.9795 13.07 66.3435 13.07H67.1695V14.372H66.2875C65.8209 14.372 65.4382 14.5027 65.1395 14.764C64.8409 15.016 64.6915 15.408 64.6915 15.94V20H63.2495ZM68.6636 20V13.098H70.1056V20H68.6636ZM69.3916 12.16C69.1116 12.16 68.8736 12.0713 68.6776 11.894C68.4909 11.7073 68.3976 11.4693 68.3976 11.18C68.3976 10.8907 68.4909 10.6573 68.6776 10.48C68.8736 10.2933 69.1116 10.2 69.3916 10.2C69.6809 10.2 69.9189 10.2933 70.1056 10.48C70.2923 10.6573 70.3856 10.8907 70.3856 11.18C70.3856 11.4693 70.2923 11.7073 70.1056 11.894C69.9189 12.0713 69.6809 12.16 69.3916 12.16ZM72.2456 20V13.098H73.6596V14.134H73.8836C74.0143 13.854 74.2476 13.5927 74.5836 13.35C74.9196 13.1073 75.419 12.986 76.0816 12.986C76.6043 12.986 77.0663 13.1027 77.4676 13.336C77.8783 13.5693 78.2003 13.9007 78.4336 14.33C78.667 14.75 78.7836 15.2587 78.7836 15.856V20H77.3416V15.968C77.3416 15.3707 77.1923 14.932 76.8936 14.652C76.595 14.3627 76.1843 14.218 75.6616 14.218C75.0643 14.218 74.5836 14.414 74.2196 14.806C73.865 15.198 73.6876 15.7673 73.6876 16.514V20H72.2456ZM80.5229 16.584V16.374C80.5229 15.646 80.6676 15.0253 80.9569 14.512C81.2556 13.9987 81.6476 13.602 82.1329 13.322C82.6183 13.042 83.1503 12.902 83.7289 12.902C84.4009 12.902 84.9143 13.028 85.2689 13.28C85.6329 13.532 85.8989 13.8027 86.0669 14.092H86.2909V13.098H87.6909V21.414C87.6909 21.834 87.5649 22.17 87.3129 22.422C87.0703 22.674 86.7343 22.8 86.3049 22.8H81.6569V21.54H85.8569C86.1276 21.54 86.2629 21.4 86.2629 21.12V18.922H86.0389C85.9363 19.09 85.7916 19.2627 85.6049 19.44C85.4183 19.6173 85.1709 19.762 84.8629 19.874C84.5643 19.986 84.1863 20.042 83.7289 20.042C83.1503 20.042 82.6136 19.9067 82.1189 19.636C81.6336 19.356 81.2463 18.9593 80.9569 18.446C80.6676 17.9233 80.5229 17.3027 80.5229 16.584ZM84.1209 18.782C84.7463 18.782 85.2596 18.586 85.6609 18.194C86.0716 17.7927 86.2769 17.242 86.2769 16.542V16.416C86.2769 15.6973 86.0763 15.1467 85.6749 14.764C85.2736 14.372 84.7556 14.176 84.1209 14.176C83.5049 14.176 82.9916 14.372 82.5809 14.764C82.1796 15.1467 81.9789 15.6973 81.9789 16.416V16.542C81.9789 17.242 82.1796 17.7927 82.5809 18.194C82.9916 18.586 83.5049 18.782 84.1209 18.782Z" fill="black"/>
<g clip-path="url(#clip0_1579_2282)">
<path d="M116.5 18V17H115.45C115.385 16.6871 115.261 16.3896 115.083 16.1235L115.828 15.3785L115.122 14.6715L114.377 15.4165C114.11 15.2396 113.813 15.1154 113.5 15.0505V14H112.5V15.0505C112.187 15.1154 111.89 15.2396 111.623 15.4165L110.878 14.6715L110.172 15.3785L110.917 16.1235C110.739 16.3896 110.615 16.6871 110.55 17H109.5V18H110.55C110.615 18.3185 110.742 18.6145 110.916 18.8765L110.171 19.6215L110.878 20.3285L111.623 19.5835C111.889 19.7606 112.187 19.885 112.5 19.95V21H113.5V19.95C113.813 19.8851 114.11 19.7609 114.377 19.584L115.122 20.329L115.828 19.622L115.083 18.877C115.261 18.6108 115.385 18.3131 115.45 18H116.5ZM113 19C112.602 19 112.221 18.842 111.939 18.5607C111.658 18.2794 111.5 17.8978 111.5 17.5C111.5 17.1022 111.658 16.7206 111.939 16.4393C112.221 16.158 112.602 16 113 16C113.398 16 113.779 16.158 114.061 16.4393C114.342 16.7206 114.5 17.1022 114.5 17.5C114.5 17.8978 114.342 18.2794 114.061 18.5607C113.779 18.842 113.398 19 113 19Z" fill="black"/>
<path d="M111.5 10C111.5 8.6215 110.378 7.5 109 7.5C108.11 7.5 107.28 7.979 106.835 8.75C106.676 9.0271 106.569 9.33118 106.52 9.647C105.93 9.22639 105.224 9.00021 104.5 9C102.57 9 101 10.57 101 12.5C101.001 13.1408 101.177 13.7691 101.51 14.3164C101.844 14.8638 102.321 15.3092 102.89 15.604C102.35 16.063 102 16.738 102 17.5C102 18.8785 103.122 20 104.5 20C104.867 20 105.214 19.916 105.528 19.773C105.666 21.0215 106.715 22 108 22C108.328 22.0009 108.654 21.9366 108.957 21.811C109.261 21.6854 109.536 21.5008 109.768 21.268L109.061 20.5605C108.922 20.7002 108.756 20.811 108.574 20.8865C108.392 20.9619 108.197 21.0005 108 21C107.173 21 106.5 20.327 106.5 19.5C106.5 18.673 107.173 18 108 18V17C107.633 17 107.286 17.0845 106.972 17.227C106.902 16.5963 106.594 16.0161 106.111 15.604C106.68 15.309 107.157 14.8636 107.49 14.3162C107.823 13.7689 107.999 13.1407 108 12.5C108 12.4265 107.993 12.3545 107.989 12.282C108.299 12.42 108.64 12.5 109 12.5C110.378 12.5 111.5 11.3785 111.5 10ZM107.7 9.25C107.832 9.02217 108.022 8.833 108.25 8.70139C108.478 8.56978 108.737 8.50034 109 8.5C109.827 8.5 110.5 9.173 110.5 10C110.5 10.827 109.827 11.5 109 11.5C108.173 11.5 107.5 10.827 107.5 10H107.485C107.503 9.712 107.571 9.474 107.7 9.25ZM106 17.5C106 18.327 105.327 19 104.5 19C103.673 19 103 18.327 103 17.5C103 16.673 103.673 16 104.5 16C105.327 16 106 16.673 106 17.5ZM104.5 15C103.122 15 102 13.8785 102 12.5C102 11.1215 103.122 10 104.5 10C105.878 10 107 11.1215 107 12.5C107 13.8785 105.878 15 104.5 15Z" fill="black"/>
</g>
<defs>
<clipPath id="clip0_1579_2282">
<rect width="16" height="16" fill="white" transform="translate(101 7)"/>
</clipPath>
</defs>
</svg>
