<svg width="124" height="30" viewBox="0 0 124 30" fill="none" xmlns="http://www.w3.org/2000/svg">
<path d="M0 10C0 4.47715 4.47715 0 10 0H114C119.523 0 124 4.47715 124 10V30H10C4.47715 30 0 25.5228 0 20V10Z" fill="#578DAF"/>
<path d="M9.43606 20V10.2H15.6101V11.572H10.9481V14.386H15.2181V15.758H10.9481V18.628H15.6801V20H9.43606ZM20.5044 20.196C19.8417 20.196 19.2397 20.056 18.6984 19.776C18.1664 19.496 17.7417 19.09 17.4244 18.558C17.1164 18.026 16.9624 17.3867 16.9624 16.64V16.458C16.9624 15.7113 17.1164 15.0767 17.4244 14.554C17.7417 14.022 18.1664 13.616 18.6984 13.336C19.2397 13.0467 19.8417 12.902 20.5044 12.902C21.167 12.902 21.7317 13.0233 22.1984 13.266C22.665 13.5087 23.0384 13.8307 23.3184 14.232C23.6077 14.6333 23.7944 15.0767 23.8784 15.562L22.4784 15.856C22.4317 15.548 22.3337 15.268 22.1844 15.016C22.035 14.764 21.825 14.5633 21.5544 14.414C21.2837 14.2647 20.943 14.19 20.5324 14.19C20.131 14.19 19.767 14.2833 19.4404 14.47C19.123 14.6473 18.871 14.9087 18.6844 15.254C18.4977 15.59 18.4044 16.0007 18.4044 16.486V16.612C18.4044 17.0973 18.4977 17.5127 18.6844 17.858C18.871 18.2033 19.123 18.4647 19.4404 18.642C19.767 18.8193 20.131 18.908 20.5324 18.908C21.139 18.908 21.601 18.754 21.9184 18.446C22.2357 18.1287 22.4364 17.7273 22.5204 17.242L23.9204 17.564C23.8084 18.04 23.6077 18.4787 23.3184 18.88C23.0384 19.2813 22.665 19.6033 22.1984 19.846C21.7317 20.0793 21.167 20.196 20.5044 20.196ZM28.8175 20.196C28.1269 20.196 27.5109 20.056 26.9695 19.776C26.4375 19.4867 26.0175 19.076 25.7095 18.544C25.4015 18.012 25.2475 17.382 25.2475 16.654V16.444C25.2475 15.716 25.4015 15.0907 25.7095 14.568C26.0175 14.036 26.4375 13.6253 26.9695 13.336C27.5109 13.0467 28.1269 12.902 28.8175 12.902C29.5082 12.902 30.1242 13.0467 30.6655 13.336C31.2069 13.6253 31.6315 14.036 31.9395 14.568C32.2475 15.0907 32.4015 15.716 32.4015 16.444V16.654C32.4015 17.382 32.2475 18.012 31.9395 18.544C31.6315 19.076 31.2069 19.4867 30.6655 19.776C30.1242 20.056 29.5082 20.196 28.8175 20.196ZM28.8175 18.908C29.4522 18.908 29.9655 18.7073 30.3575 18.306C30.7589 17.8953 30.9595 17.3307 30.9595 16.612V16.486C30.9595 15.7673 30.7635 15.2073 30.3715 14.806C29.9795 14.3953 29.4615 14.19 28.8175 14.19C28.1922 14.19 27.6789 14.3953 27.2775 14.806C26.8855 15.2073 26.6895 15.7673 26.6895 16.486V16.612C26.6895 17.3307 26.8855 17.8953 27.2775 18.306C27.6789 18.7073 28.1922 18.908 28.8175 18.908ZM34.1968 20V13.098H35.6108V14.134H35.8348C35.9655 13.854 36.1988 13.5927 36.5348 13.35C36.8708 13.1073 37.3701 12.986 38.0328 12.986C38.5555 12.986 39.0175 13.1027 39.4188 13.336C39.8295 13.5693 40.1515 13.9007 40.3848 14.33C40.6181 14.75 40.7348 15.2587 40.7348 15.856V20H39.2928V15.968C39.2928 15.3707 39.1435 14.932 38.8448 14.652C38.5461 14.3627 38.1355 14.218 37.6128 14.218C37.0155 14.218 36.5348 14.414 36.1708 14.806C35.8161 15.198 35.6388 15.7673 35.6388 16.514V20H34.1968ZM46.0441 20.196C45.3534 20.196 44.7374 20.056 44.1961 19.776C43.6641 19.4867 43.2441 19.076 42.9361 18.544C42.6281 18.012 42.4741 17.382 42.4741 16.654V16.444C42.4741 15.716 42.6281 15.0907 42.9361 14.568C43.2441 14.036 43.6641 13.6253 44.1961 13.336C44.7374 13.0467 45.3534 12.902 46.0441 12.902C46.7348 12.902 47.3508 13.0467 47.8921 13.336C48.4334 13.6253 48.8581 14.036 49.1661 14.568C49.4741 15.0907 49.6281 15.716 49.6281 16.444V16.654C49.6281 17.382 49.4741 18.012 49.1661 18.544C48.8581 19.076 48.4334 19.4867 47.8921 19.776C47.3508 20.056 46.7348 20.196 46.0441 20.196ZM46.0441 18.908C46.6788 18.908 47.1921 18.7073 47.5841 18.306C47.9854 17.8953 48.1861 17.3307 48.1861 16.612V16.486C48.1861 15.7673 47.9901 15.2073 47.5981 14.806C47.2061 14.3953 46.6881 14.19 46.0441 14.19C45.4188 14.19 44.9054 14.3953 44.5041 14.806C44.1121 15.2073 43.9161 15.7673 43.9161 16.486V16.612C43.9161 17.3307 44.1121 17.8953 44.5041 18.306C44.9054 18.7073 45.4188 18.908 46.0441 18.908ZM51.4234 20V13.098H52.8374V13.91H53.0614C53.192 13.6673 53.402 13.4527 53.6914 13.266C53.9807 13.0793 54.3727 12.986 54.8674 12.986C55.3807 12.986 55.7914 13.0933 56.0994 13.308C56.4167 13.5133 56.6547 13.7793 56.8134 14.106H57.0374C57.196 13.7887 57.4247 13.5227 57.7234 13.308C58.0314 13.0933 58.4654 12.986 59.0254 12.986C59.4734 12.986 59.87 13.0793 60.2154 13.266C60.5607 13.4433 60.836 13.714 61.0414 14.078C61.2467 14.4327 61.3494 14.876 61.3494 15.408V20H59.9074V15.52C59.9074 15.1 59.7907 14.778 59.5574 14.554C59.3334 14.3207 59.0114 14.204 58.5914 14.204C58.1434 14.204 57.784 14.3487 57.5134 14.638C57.2427 14.9273 57.1074 15.3427 57.1074 15.884V20H55.6654V15.52C55.6654 15.1 55.5487 14.778 55.3154 14.554C55.0914 14.3207 54.7694 14.204 54.3494 14.204C53.9014 14.204 53.542 14.3487 53.2714 14.638C53.0007 14.9273 52.8654 15.3427 52.8654 15.884V20H51.4234ZM63.4273 20V13.098H64.8693V20H63.4273ZM64.1553 12.16C63.8753 12.16 63.6373 12.0713 63.4413 11.894C63.2546 11.7073 63.1613 11.4693 63.1613 11.18C63.1613 10.8907 63.2546 10.6573 63.4413 10.48C63.6373 10.2933 63.8753 10.2 64.1553 10.2C64.4446 10.2 64.6826 10.2933 64.8693 10.48C65.0559 10.6573 65.1493 10.8907 65.1493 11.18C65.1493 11.4693 65.0559 11.7073 64.8693 11.894C64.6826 12.0713 64.4446 12.16 64.1553 12.16ZM70.2153 20.196C69.5526 20.196 68.9506 20.056 68.4093 19.776C67.8773 19.496 67.4526 19.09 67.1353 18.558C66.8273 18.026 66.6733 17.3867 66.6733 16.64V16.458C66.6733 15.7113 66.8273 15.0767 67.1353 14.554C67.4526 14.022 67.8773 13.616 68.4093 13.336C68.9506 13.0467 69.5526 12.902 70.2153 12.902C70.878 12.902 71.4426 13.0233 71.9093 13.266C72.376 13.5087 72.7493 13.8307 73.0293 14.232C73.3186 14.6333 73.5053 15.0767 73.5893 15.562L72.1893 15.856C72.1426 15.548 72.0446 15.268 71.8953 15.016C71.746 14.764 71.536 14.5633 71.2653 14.414C70.9946 14.2647 70.654 14.19 70.2433 14.19C69.842 14.19 69.478 14.2833 69.1513 14.47C68.834 14.6473 68.582 14.9087 68.3953 15.254C68.2086 15.59 68.1153 16.0007 68.1153 16.486V16.612C68.1153 17.0973 68.2086 17.5127 68.3953 17.858C68.582 18.2033 68.834 18.4647 69.1513 18.642C69.478 18.8193 69.842 18.908 70.2433 18.908C70.85 18.908 71.312 18.754 71.6293 18.446C71.9466 18.1287 72.1473 17.7273 72.2313 17.242L73.6313 17.564C73.5193 18.04 73.3186 18.4787 73.0293 18.88C72.7493 19.2813 72.376 19.6033 71.9093 19.846C71.4426 20.0793 70.878 20.196 70.2153 20.196ZM78.1225 20.196C77.2451 20.196 76.5171 20 75.9385 19.608C75.3598 19.216 75.0051 18.6233 74.8745 17.83L76.2185 17.508C76.2931 17.8907 76.4191 18.194 76.5965 18.418C76.7738 18.642 76.9931 18.8007 77.2545 18.894C77.5251 18.9873 77.8145 19.034 78.1225 19.034C78.5798 19.034 78.9298 18.9453 79.1725 18.768C79.4245 18.5907 79.5505 18.362 79.5505 18.082C79.5505 17.802 79.4338 17.5967 79.2005 17.466C78.9671 17.3353 78.6218 17.228 78.1645 17.144L77.6885 17.06C77.2218 16.976 76.7971 16.8547 76.4145 16.696C76.0318 16.5373 75.7285 16.318 75.5045 16.038C75.2805 15.758 75.1685 15.3987 75.1685 14.96C75.1685 14.3067 75.4111 13.8027 75.8965 13.448C76.3818 13.084 77.0258 12.902 77.8285 12.902C78.6031 12.902 79.2378 13.0793 79.7325 13.434C80.2365 13.7793 80.5631 14.2507 80.7125 14.848L79.3685 15.226C79.2845 14.806 79.1071 14.512 78.8365 14.344C78.5658 14.1667 78.2298 14.078 77.8285 14.078C77.4365 14.078 77.1285 14.1527 76.9045 14.302C76.6805 14.442 76.5685 14.6427 76.5685 14.904C76.5685 15.184 76.6758 15.3893 76.8905 15.52C77.1145 15.6507 77.4131 15.7487 77.7865 15.814L78.2765 15.898C78.7711 15.982 79.2238 16.0987 79.6345 16.248C80.0451 16.3973 80.3671 16.612 80.6005 16.892C80.8431 17.172 80.9645 17.5453 80.9645 18.012C80.9645 18.7027 80.7078 19.2393 80.1945 19.622C79.6811 20.0047 78.9905 20.196 78.1225 20.196Z" fill="black"/>
<path d="M101.7 23.25C100.31 23.25 99.137 22.7727 98.1818 21.8182C97.2267 20.8636 96.7494 19.6909 96.75 18.3C96.75 17.7194 96.8493 17.1542 97.0479 16.6042C97.2465 16.0542 97.5292 15.5576 97.8958 15.1146L101.15 11.1958L99.5917 8.07917C99.4389 7.77361 99.4505 7.47569 99.6265 7.18542C99.8025 6.89514 100.066 6.75 100.417 6.75H109.583C109.935 6.75 110.198 6.89514 110.374 7.18542C110.55 7.47569 110.562 7.77361 110.408 8.07917L108.85 11.1958L112.104 15.1146C112.471 15.5576 112.753 16.0542 112.952 16.6042C113.151 17.1542 113.25 17.7194 113.25 18.3C113.25 19.6903 112.769 20.863 111.806 21.8182C110.844 22.7733 109.675 23.2506 108.3 23.25H101.7ZM105 18.6667C104.496 18.6667 104.064 18.4873 103.706 18.1286C103.347 17.7699 103.167 17.3381 103.167 16.8333C103.166 16.3286 103.346 15.8971 103.706 15.539C104.066 15.1809 104.497 15.0012 105 15C105.503 14.9988 105.935 15.1784 106.295 15.539C106.656 15.8996 106.835 16.331 106.833 16.8333C106.832 17.3357 106.652 17.7674 106.295 18.1286C105.938 18.4897 105.507 18.6691 105 18.6667ZM102.823 10.4167H107.177L108.094 8.58333H101.906L102.823 10.4167ZM101.7 21.4167H108.3C109.171 21.4167 109.908 21.1151 110.512 20.5119C111.116 19.9088 111.417 19.1714 111.417 18.3C111.417 17.9333 111.352 17.5783 111.221 17.2348C111.091 16.8914 110.912 16.5819 110.683 16.3063L107.315 12.25H102.708L99.3167 16.2833C99.0875 16.5583 98.9081 16.8715 98.7786 17.2229C98.649 17.5743 98.5839 17.9333 98.5833 18.3C98.5833 19.1708 98.8852 19.9081 99.489 20.5119C100.093 21.1157 100.83 21.4173 101.7 21.4167Z" fill="black"/>
</svg>
