<svg width="91" height="30" viewBox="0 0 91 30" fill="none" xmlns="http://www.w3.org/2000/svg">
<path d="M0 10C0 4.47715 4.47715 0 10 0H81C86.5229 0 91 4.47715 91 10V30H10C4.47715 30 0 25.5228 0 20V10Z" fill="#98AF57"/>
<path d="M9.41263 20V10.2H12.2546L14.3966 18.992H14.6206L16.7626 10.2H19.6046V20H18.1346V11.264H17.9106L15.7826 20H13.2346L11.1066 11.264H10.8826V20H9.41263ZM23.833 20.196C23.3383 20.196 22.895 20.112 22.503 19.944C22.1203 19.776 21.8123 19.5287 21.579 19.202C21.355 18.8753 21.243 18.4787 21.243 18.012C21.243 17.536 21.355 17.144 21.579 16.836C21.8123 16.5187 22.125 16.2807 22.517 16.122C22.9183 15.9633 23.371 15.884 23.875 15.884H25.975V15.436C25.975 15.0347 25.8536 14.7127 25.611 14.47C25.3683 14.2273 24.995 14.106 24.491 14.106C23.9963 14.106 23.6183 14.2227 23.357 14.456C23.0956 14.6893 22.923 14.9927 22.839 15.366L21.495 14.932C21.607 14.5587 21.7843 14.2227 22.027 13.924C22.279 13.616 22.6103 13.3687 23.021 13.182C23.4316 12.9953 23.9263 12.902 24.505 12.902C25.401 12.902 26.1056 13.1307 26.619 13.588C27.1323 14.0453 27.389 14.694 27.389 15.534V18.376C27.389 18.656 27.5196 18.796 27.781 18.796H28.369V20H27.291C26.9643 20 26.6983 19.916 26.493 19.748C26.2876 19.58 26.185 19.3513 26.185 19.062V19.02H25.975C25.9003 19.16 25.7883 19.3233 25.639 19.51C25.4896 19.6967 25.2703 19.86 24.981 20C24.6916 20.1307 24.309 20.196 23.833 20.196ZM24.043 19.006C24.6216 19.006 25.0883 18.8427 25.443 18.516C25.7976 18.18 25.975 17.7227 25.975 17.144V17.004H23.959C23.5763 17.004 23.2683 17.088 23.035 17.256C22.8016 17.4147 22.685 17.6527 22.685 17.97C22.685 18.2873 22.8063 18.5393 23.049 18.726C23.2916 18.9127 23.623 19.006 24.043 19.006ZM31.8825 20C31.4625 20 31.1265 19.874 30.8745 19.622C30.6318 19.37 30.5105 19.034 30.5105 18.614V14.316H28.6065V13.098H30.5105V10.816H31.9525V13.098H34.0105V14.316H31.9525V18.362C31.9525 18.642 32.0832 18.782 32.3445 18.782H33.7865V20H31.8825ZM35.7046 20V10.2H37.1466V14.078H37.3706C37.464 13.9007 37.5946 13.728 37.7626 13.56C37.94 13.392 38.1686 13.2567 38.4486 13.154C38.738 13.042 39.102 12.986 39.5406 12.986C40.0633 12.986 40.5253 13.1027 40.9266 13.336C41.3373 13.5693 41.6593 13.9007 41.8926 14.33C42.126 14.75 42.2426 15.2587 42.2426 15.856V20H40.8006V15.968C40.8006 15.3707 40.6513 14.932 40.3526 14.652C40.054 14.3627 39.6433 14.218 39.1206 14.218C38.5233 14.218 38.0426 14.414 37.6786 14.806C37.324 15.198 37.1466 15.7673 37.1466 16.514V20H35.7046ZM47.1459 20.196C46.2686 20.196 45.5406 20 44.9619 19.608C44.3832 19.216 44.0286 18.6233 43.8979 17.83L45.2419 17.508C45.3166 17.8907 45.4426 18.194 45.6199 18.418C45.7972 18.642 46.0166 18.8007 46.2779 18.894C46.5486 18.9873 46.8379 19.034 47.1459 19.034C47.6032 19.034 47.9532 18.9453 48.1959 18.768C48.4479 18.5907 48.5739 18.362 48.5739 18.082C48.5739 17.802 48.4572 17.5967 48.2239 17.466C47.9906 17.3353 47.6452 17.228 47.1879 17.144L46.7119 17.06C46.2452 16.976 45.8206 16.8547 45.4379 16.696C45.0552 16.5373 44.7519 16.318 44.5279 16.038C44.3039 15.758 44.1919 15.3987 44.1919 14.96C44.1919 14.3067 44.4346 13.8027 44.9199 13.448C45.4052 13.084 46.0492 12.902 46.8519 12.902C47.6266 12.902 48.2612 13.0793 48.7559 13.434C49.2599 13.7793 49.5866 14.2507 49.7359 14.848L48.3919 15.226C48.3079 14.806 48.1306 14.512 47.8599 14.344C47.5892 14.1667 47.2532 14.078 46.8519 14.078C46.4599 14.078 46.1519 14.1527 45.9279 14.302C45.7039 14.442 45.5919 14.6427 45.5919 14.904C45.5919 15.184 45.6992 15.3893 45.9139 15.52C46.1379 15.6507 46.4366 15.7487 46.8099 15.814L47.2999 15.898C47.7946 15.982 48.2472 16.0987 48.6579 16.248C49.0686 16.3973 49.3906 16.612 49.6239 16.892C49.8666 17.172 49.9879 17.5453 49.9879 18.012C49.9879 18.7027 49.7312 19.2393 49.2179 19.622C48.7046 20.0047 48.0139 20.196 47.1459 20.196Z" fill="black"/>
<path d="M72.1567 8.48341C72.0434 8.38635 71.8992 8.33301 71.75 8.33301C71.6009 8.33301 71.4566 8.38635 71.3434 8.48341L69.885 9.73341C69.8227 9.78681 69.7714 9.85198 69.7342 9.92519C69.697 9.9984 69.6746 10.0782 69.6683 10.1601C69.6619 10.242 69.6718 10.3243 69.6972 10.4023C69.7227 10.4804 69.7633 10.5527 69.8167 10.6151C69.8701 10.6774 69.9353 10.7287 70.0085 10.7659C70.0817 10.8031 70.1615 10.8255 70.2434 10.8318C70.3253 10.8382 70.4076 10.8283 70.4856 10.8029C70.5637 10.7774 70.636 10.7368 70.6984 10.6834L71.75 9.78091L72.8017 10.6817C72.9282 10.7833 73.0893 10.8317 73.2508 10.8167C73.4124 10.8016 73.5617 10.7244 73.6674 10.6012C73.773 10.4781 73.8266 10.3187 73.8168 10.1567C73.8071 9.99478 73.7347 9.84298 73.615 9.73341L72.1567 8.48341ZM74.3 12.9526C74.3713 12.8914 74.4555 12.8471 74.5462 12.823C74.6369 12.7988 74.732 12.7954 74.8242 12.8131C74.9164 12.8307 75.0035 12.8688 75.079 12.9247C75.1544 12.9806 75.2163 13.0528 75.26 13.1359L76.2559 15.0276L73.1834 18.1001C73.122 18.1573 73.0727 18.2263 73.0386 18.303C73.0044 18.3796 72.986 18.4624 72.9846 18.5463C72.9831 18.6302 72.9985 18.7136 73.0299 18.7914C73.0614 18.8692 73.1082 18.9399 73.1675 18.9993C73.2269 19.0586 73.2976 19.1054 73.3754 19.1368C73.4532 19.1683 73.5366 19.1837 73.6205 19.1822C73.7044 19.1807 73.7872 19.1624 73.8638 19.1282C73.9405 19.0941 74.0095 19.0448 74.0667 18.9834L76.865 16.1859L77.9667 18.2792C78.0979 18.5285 78.2836 18.7451 78.5099 18.9127C78.7363 19.0804 78.9976 19.1949 79.2743 19.2478C79.551 19.3006 79.836 19.2904 80.1083 19.218C80.3805 19.1455 80.6329 19.0126 80.8467 18.8292L81.115 18.5992C81.1804 18.5468 81.2345 18.4817 81.2742 18.408C81.3139 18.3342 81.3384 18.2531 81.3461 18.1697C81.3539 18.0863 81.3448 18.0022 81.3194 17.9223C81.294 17.8425 81.2528 17.7686 81.1982 17.705C81.1437 17.6414 81.0769 17.5894 81.0019 17.5521C80.9268 17.5148 80.8451 17.493 80.7614 17.488C80.6778 17.4829 80.594 17.4948 80.515 17.5227C80.436 17.5507 80.3635 17.5943 80.3017 17.6509L80.0334 17.8809C79.9621 17.942 79.878 17.9863 79.7872 18.0105C79.6965 18.0346 79.6015 18.038 79.5092 18.0204C79.417 18.0028 79.3299 17.9646 79.2545 17.9087C79.179 17.8528 79.1171 17.7807 79.0734 17.6976L77.79 15.2601L80.3167 12.7334C80.4271 12.6149 80.4872 12.4582 80.4844 12.2963C80.4815 12.1344 80.4159 11.9799 80.3014 11.8654C80.1869 11.7509 80.0324 11.6853 79.8705 11.6824C79.7086 11.6796 79.5519 11.7397 79.4334 11.8501L77.1809 14.1017L76.3667 12.5542C76.2355 12.3049 76.0498 12.0884 75.8235 11.9207C75.5971 11.7531 75.3359 11.6385 75.0592 11.5857C74.7825 11.5329 74.4974 11.543 74.2252 11.6155C73.9529 11.688 73.7005 11.8208 73.4867 12.0042L73.2184 12.2342C73.153 12.2867 73.0989 12.3517 73.0592 12.4255C73.0195 12.4993 72.9951 12.5803 72.9873 12.6638C72.9795 12.7472 72.9886 12.8313 73.014 12.9112C73.0395 12.991 73.0807 13.0649 73.1352 13.1285C73.1897 13.1921 73.2565 13.2441 73.3316 13.2814C73.4066 13.3187 73.4884 13.3405 73.572 13.3455C73.6556 13.3505 73.7394 13.3387 73.8184 13.3107C73.8974 13.2827 73.9699 13.2392 74.0317 13.1826L74.3 12.9526ZM65.9884 16.2251C66.76 16.2142 67.565 16.1717 68.2884 16.0151C69.1634 15.8267 70.0275 15.4501 70.5525 14.6559C71.0225 13.9459 71.0367 13.0967 70.6 12.4626C70.1559 11.8176 69.3417 11.5276 68.4334 11.7334C67.7992 11.8753 67.2071 12.1635 66.7042 12.5751C66.0167 13.1334 65.3475 14.0184 64.91 15.4159C64.585 16.4526 64.5875 17.3576 64.9042 18.0817C65.2267 18.8176 65.8375 19.2792 66.5442 19.4734C67.9192 19.8534 69.65 19.2451 70.7559 17.8484C70.8527 17.718 70.8949 17.555 70.8736 17.3939C70.8522 17.2329 70.7691 17.0865 70.6417 16.9857C70.5142 16.885 70.3526 16.8378 70.191 16.8541C70.0294 16.8705 69.8805 16.9492 69.7759 17.0734C68.9267 18.1451 67.6884 18.4934 66.8767 18.2692C66.4892 18.1617 66.2034 17.9317 66.0492 17.5801C65.9192 17.2826 65.86 16.8409 65.9884 16.2251ZM69.5709 13.1709C69.6867 13.3401 69.7309 13.6326 69.51 13.9659C69.2459 14.3651 68.76 14.6342 68.025 14.7934C67.5425 14.8976 66.9984 14.9442 66.4225 14.9642C66.75 14.2751 67.1367 13.8342 67.4917 13.5459C67.8456 13.2552 68.263 13.052 68.71 12.9526C69.2025 12.8409 69.4625 13.0142 69.5709 13.1709Z" fill="black"/>
</svg>
