<svg width="91" height="30" viewBox="0 0 91 30" fill="none" xmlns="http://www.w3.org/2000/svg">
<path d="M0 10C0 4.47715 4.47715 0 10 0H81C86.5229 0 91 4.47715 91 10V30H10C4.47715 30 0 25.5228 0 20V10Z" fill="#98AF57"/>
<path d="M9.26126 20V10.2H15.4353V11.572H10.7733V14.386H15.0433V15.758H10.7733V18.628H15.5053V20H9.26126ZM17.1236 20V13.098H18.5376V14.134H18.7616C18.8922 13.854 19.1256 13.5927 19.4616 13.35C19.7976 13.1073 20.2969 12.986 20.9596 12.986C21.4822 12.986 21.9442 13.1027 22.3456 13.336C22.7562 13.5693 23.0782 13.9007 23.3116 14.33C23.5449 14.75 23.6616 15.2587 23.6616 15.856V20H22.2196V15.968C22.2196 15.3707 22.0702 14.932 21.7716 14.652C21.4729 14.3627 21.0622 14.218 20.5396 14.218C19.9422 14.218 19.4616 14.414 19.0976 14.806C18.7429 15.198 18.5656 15.7673 18.5656 16.514V20H17.1236ZM25.4009 16.584V16.374C25.4009 15.646 25.5455 15.0253 25.8349 14.512C26.1335 13.9987 26.5255 13.602 27.0109 13.322C27.4962 13.042 28.0282 12.902 28.6069 12.902C29.2789 12.902 29.7922 13.028 30.1469 13.28C30.5109 13.532 30.7769 13.8027 30.9449 14.092H31.1689V13.098H32.5689V21.414C32.5689 21.834 32.4429 22.17 32.1909 22.422C31.9482 22.674 31.6122 22.8 31.1829 22.8H26.5349V21.54H30.7349C31.0055 21.54 31.1409 21.4 31.1409 21.12V18.922H30.9169C30.8142 19.09 30.6695 19.2627 30.4829 19.44C30.2962 19.6173 30.0489 19.762 29.7409 19.874C29.4422 19.986 29.0642 20.042 28.6069 20.042C28.0282 20.042 27.4915 19.9067 26.9969 19.636C26.5115 19.356 26.1242 18.9593 25.8349 18.446C25.5455 17.9233 25.4009 17.3027 25.4009 16.584ZM28.9989 18.782C29.6242 18.782 30.1375 18.586 30.5389 18.194C30.9495 17.7927 31.1549 17.242 31.1549 16.542V16.416C31.1549 15.6973 30.9542 15.1467 30.5529 14.764C30.1515 14.372 29.6335 14.176 28.9989 14.176C28.3829 14.176 27.8695 14.372 27.4589 14.764C27.0575 15.1467 26.8569 15.6973 26.8569 16.416V16.542C26.8569 17.242 27.0575 17.7927 27.4589 18.194C27.8695 18.586 28.3829 18.782 28.9989 18.782ZM34.6919 20V10.2H36.1339V20H34.6919ZM38.274 20V13.098H39.716V20H38.274ZM39.002 12.16C38.722 12.16 38.484 12.0713 38.288 11.894C38.1013 11.7073 38.008 11.4693 38.008 11.18C38.008 10.8907 38.1013 10.6573 38.288 10.48C38.484 10.2933 38.722 10.2 39.002 10.2C39.2913 10.2 39.5293 10.2933 39.716 10.48C39.9026 10.6573 39.996 10.8907 39.996 11.18C39.996 11.4693 39.9026 11.7073 39.716 11.894C39.5293 12.0713 39.2913 12.16 39.002 12.16ZM44.684 20.196C43.8067 20.196 43.0787 20 42.5 19.608C41.9213 19.216 41.5667 18.6233 41.436 17.83L42.78 17.508C42.8547 17.8907 42.9807 18.194 43.158 18.418C43.3353 18.642 43.5547 18.8007 43.816 18.894C44.0867 18.9873 44.376 19.034 44.684 19.034C45.1413 19.034 45.4913 18.9453 45.734 18.768C45.986 18.5907 46.112 18.362 46.112 18.082C46.112 17.802 45.9953 17.5967 45.762 17.466C45.5287 17.3353 45.1833 17.228 44.726 17.144L44.25 17.06C43.7833 16.976 43.3587 16.8547 42.976 16.696C42.5933 16.5373 42.29 16.318 42.066 16.038C41.842 15.758 41.73 15.3987 41.73 14.96C41.73 14.3067 41.9727 13.8027 42.458 13.448C42.9433 13.084 43.5873 12.902 44.39 12.902C45.1647 12.902 45.7993 13.0793 46.294 13.434C46.798 13.7793 47.1247 14.2507 47.274 14.848L45.93 15.226C45.846 14.806 45.6687 14.512 45.398 14.344C45.1273 14.1667 44.7913 14.078 44.39 14.078C43.998 14.078 43.69 14.1527 43.466 14.302C43.242 14.442 43.13 14.6427 43.13 14.904C43.13 15.184 43.2373 15.3893 43.452 15.52C43.676 15.6507 43.9747 15.7487 44.348 15.814L44.838 15.898C45.3327 15.982 45.7853 16.0987 46.196 16.248C46.6067 16.3973 46.9287 16.612 47.162 16.892C47.4047 17.172 47.526 17.5453 47.526 18.012C47.526 18.7027 47.2693 19.2393 46.756 19.622C46.2427 20.0047 45.552 20.196 44.684 20.196ZM49.2115 20V10.2H50.6535V14.078H50.8775C50.9708 13.9007 51.1015 13.728 51.2695 13.56C51.4468 13.392 51.6755 13.2567 51.9555 13.154C52.2448 13.042 52.6088 12.986 53.0475 12.986C53.5701 12.986 54.0321 13.1027 54.4335 13.336C54.8441 13.5693 55.1661 13.9007 55.3995 14.33C55.6328 14.75 55.7495 15.2587 55.7495 15.856V20H54.3075V15.968C54.3075 15.3707 54.1581 14.932 53.8595 14.652C53.5608 14.3627 53.1501 14.218 52.6275 14.218C52.0301 14.218 51.5495 14.414 51.1855 14.806C50.8308 15.198 50.6535 15.7673 50.6535 16.514V20H49.2115Z" fill="black"/>
<path d="M69.7 8.70002V8C69.5144 8 69.3363 8.07375 69.205 8.20503C69.0738 8.33631 69 8.51436 69 8.70002H69.7ZM80.4054 16.6053L79.7677 16.3169C79.7091 16.4465 79.6914 16.5909 79.7169 16.7309C79.7424 16.8708 79.8099 16.9996 79.9105 17.1002L80.4054 16.6053ZM82.3003 18.5003L82.7953 18.9952C82.9265 18.8639 83.0002 18.6859 83.0002 18.5003C83.0002 18.3147 82.9265 18.1366 82.7953 18.0054L82.3003 18.5003ZM79.5003 21.3003L79.0054 21.7953C79.1366 21.9265 79.3147 22.0002 79.5003 22.0002C79.6859 22.0002 79.8639 21.9265 79.9952 21.7953L79.5003 21.3003ZM77.6053 19.4054L78.1002 18.9105C77.9996 18.8098 77.8706 18.7421 77.7305 18.7166C77.5904 18.6911 77.4459 18.7089 77.3162 18.7677L77.6053 19.4054ZM75.3002 8H69.7V9.40004H75.3002V8ZM81.6003 14.3002C81.6003 13.4728 81.4374 12.6536 81.1208 11.8892C80.8041 11.1248 80.3401 10.4303 79.7551 9.84528C79.17 9.26025 78.4755 8.79618 77.7111 8.47957C76.9468 8.16296 76.1275 8 75.3002 8V9.40004C76.5998 9.40004 77.8461 9.9163 78.7651 10.8353C79.684 11.7542 80.2003 13.0006 80.2003 14.3002H81.6003ZM81.0431 16.8937C81.4108 16.0786 81.6008 15.1944 81.6003 14.3002H80.2003C80.2007 14.9953 80.0532 15.6832 79.7677 16.3169L81.0431 16.8937ZM79.9105 17.1002L81.8054 18.9952L82.7953 18.0054L80.9003 16.1104L79.9105 17.1002ZM81.8054 18.0054L79.0054 20.8054L79.9952 21.7953L82.7953 18.9952L81.8054 18.0054ZM79.9952 20.8054L78.1002 18.9105L77.1104 19.9003L79.0054 21.7953L79.9952 20.8054ZM75.3002 20.6003C76.1944 20.6008 77.0786 20.4108 77.8937 20.0431L77.3162 18.7677C76.6823 19.0533 75.9955 19.2008 75.3002 19.2003V20.6003ZM69 14.3002C69 15.9711 69.6638 17.5735 70.8453 18.7551C72.0268 19.9366 73.6293 20.6003 75.3002 20.6003V19.2003C74.0006 19.2003 72.7542 18.684 71.8353 17.7651C70.9163 16.8461 70.4 15.5998 70.4 14.3002H69ZM69 8.70002V14.3002H70.4V8.70002H69Z" fill="black"/>
<path d="M75.2999 12.8999C74.5267 12.8999 73.8999 13.5267 73.8999 14.2999C73.8999 15.0731 74.5267 15.7 75.2999 15.7C76.0731 15.7 76.7 15.0731 76.7 14.2999C76.7 13.5267 76.0731 12.8999 75.2999 12.8999Z" fill="black"/>
<path d="M69.6998 8.69971L75.3 14.2999" stroke="black" stroke-width="2" stroke-linecap="round" stroke-linejoin="round"/>
</svg>
