<svg width="106" height="30" viewBox="0 0 106 30" fill="none" xmlns="http://www.w3.org/2000/svg">
<path d="M0 10C0 4.47715 4.47715 0 10 0H96C101.523 0 106 4.47715 106 10V30H10C4.47715 30 0 25.5228 0 20V10Z" fill="white"/>
<path d="M9.21243 20V10.2H12.0544L14.1964 18.992H14.4204L16.5624 10.2H19.4044V20H17.9344V11.264H17.7104L15.5824 20H13.0344L10.9064 11.264H10.6824V20H9.21243ZM24.6548 20.196C23.9548 20.196 23.3434 20.0513 22.8208 19.762C22.2981 19.4633 21.8874 19.048 21.5888 18.516C21.2994 17.9747 21.1548 17.3493 21.1548 16.64V16.472C21.1548 15.7533 21.2994 15.128 21.5888 14.596C21.8781 14.0547 22.2794 13.6393 22.7928 13.35C23.3154 13.0513 23.9174 12.902 24.5988 12.902C25.2614 12.902 25.8401 13.0513 26.3348 13.35C26.8388 13.6393 27.2308 14.0453 27.5108 14.568C27.7908 15.0907 27.9308 15.702 27.9308 16.402V16.948H22.6248C22.6434 17.5547 22.8441 18.04 23.2268 18.404C23.6188 18.7587 24.1041 18.936 24.6828 18.936C25.2241 18.936 25.6301 18.8147 25.9008 18.572C26.1808 18.3293 26.3954 18.0493 26.5448 17.732L27.7348 18.348C27.6041 18.6093 27.4128 18.8847 27.1608 19.174C26.9181 19.4633 26.5961 19.706 26.1948 19.902C25.7934 20.098 25.2801 20.196 24.6548 20.196ZM22.6388 15.842H26.4608C26.4234 15.3193 26.2368 14.9133 25.9008 14.624C25.5648 14.3253 25.1261 14.176 24.5848 14.176C24.0434 14.176 23.6001 14.3253 23.2548 14.624C22.9188 14.9133 22.7134 15.3193 22.6388 15.842ZM32.5225 20.196C31.9532 20.196 31.4259 20.056 30.9405 19.776C30.4552 19.496 30.0632 19.0947 29.7645 18.572C29.4752 18.04 29.3305 17.4007 29.3305 16.654V16.444C29.3305 15.7067 29.4752 15.072 29.7645 14.54C30.0539 14.008 30.4412 13.602 30.9265 13.322C31.4119 13.042 31.9439 12.902 32.5225 12.902C32.9705 12.902 33.3439 12.958 33.6425 13.07C33.9505 13.182 34.2025 13.3267 34.3985 13.504C34.5945 13.672 34.7439 13.8493 34.8465 14.036H35.0705V10.2H36.5125V20H35.0985V19.02H34.8745C34.6972 19.3187 34.4265 19.5893 34.0625 19.832C33.7079 20.0747 33.1945 20.196 32.5225 20.196ZM32.9285 18.936C33.5539 18.936 34.0672 18.7353 34.4685 18.334C34.8792 17.9327 35.0845 17.3587 35.0845 16.612V16.486C35.0845 15.7487 34.8839 15.1793 34.4825 14.778C34.0812 14.3767 33.5632 14.176 32.9285 14.176C32.3125 14.176 31.7992 14.3767 31.3885 14.778C30.9872 15.1793 30.7865 15.7487 30.7865 16.486V16.612C30.7865 17.3587 30.9872 17.9327 31.3885 18.334C31.7992 18.7353 32.3125 18.936 32.9285 18.936ZM38.6353 20V13.098H40.0773V20H38.6353ZM39.3633 12.16C39.0833 12.16 38.8453 12.0713 38.6493 11.894C38.4626 11.7073 38.3693 11.4693 38.3693 11.18C38.3693 10.8907 38.4626 10.6573 38.6493 10.48C38.8453 10.2933 39.0833 10.2 39.3633 10.2C39.6526 10.2 39.8906 10.2933 40.0773 10.48C40.264 10.6573 40.3573 10.8907 40.3573 11.18C40.3573 11.4693 40.264 11.7073 40.0773 11.894C39.8906 12.0713 39.6526 12.16 39.3633 12.16ZM45.4233 20.196C44.7607 20.196 44.1587 20.056 43.6173 19.776C43.0853 19.496 42.6607 19.09 42.3433 18.558C42.0353 18.026 41.8813 17.3867 41.8813 16.64V16.458C41.8813 15.7113 42.0353 15.0767 42.3433 14.554C42.6607 14.022 43.0853 13.616 43.6173 13.336C44.1587 13.0467 44.7607 12.902 45.4233 12.902C46.086 12.902 46.6507 13.0233 47.1173 13.266C47.584 13.5087 47.9573 13.8307 48.2373 14.232C48.5267 14.6333 48.7133 15.0767 48.7973 15.562L47.3973 15.856C47.3507 15.548 47.2527 15.268 47.1033 15.016C46.954 14.764 46.744 14.5633 46.4733 14.414C46.2027 14.2647 45.862 14.19 45.4513 14.19C45.05 14.19 44.686 14.2833 44.3593 14.47C44.042 14.6473 43.79 14.9087 43.6033 15.254C43.4167 15.59 43.3233 16.0007 43.3233 16.486V16.612C43.3233 17.0973 43.4167 17.5127 43.6033 17.858C43.79 18.2033 44.042 18.4647 44.3593 18.642C44.686 18.8193 45.05 18.908 45.4513 18.908C46.058 18.908 46.52 18.754 46.8373 18.446C47.1547 18.1287 47.3553 17.7273 47.4393 17.242L48.8393 17.564C48.7273 18.04 48.5267 18.4787 48.2373 18.88C47.9573 19.2813 47.584 19.6033 47.1173 19.846C46.6507 20.0793 46.086 20.196 45.4233 20.196ZM50.5025 20V13.098H51.9445V20H50.5025ZM51.2305 12.16C50.9505 12.16 50.7125 12.0713 50.5165 11.894C50.3298 11.7073 50.2365 11.4693 50.2365 11.18C50.2365 10.8907 50.3298 10.6573 50.5165 10.48C50.7125 10.2933 50.9505 10.2 51.2305 10.2C51.5198 10.2 51.7578 10.2933 51.9445 10.48C52.1311 10.6573 52.2245 10.8907 52.2245 11.18C52.2245 11.4693 52.1311 11.7073 51.9445 11.894C51.7578 12.0713 51.5198 12.16 51.2305 12.16ZM54.0845 20V13.098H55.4985V14.134H55.7225C55.8532 13.854 56.0865 13.5927 56.4225 13.35C56.7585 13.1073 57.2578 12.986 57.9205 12.986C58.4432 12.986 58.9052 13.1027 59.3065 13.336C59.7172 13.5693 60.0392 13.9007 60.2725 14.33C60.5058 14.75 60.6225 15.2587 60.6225 15.856V20H59.1805V15.968C59.1805 15.3707 59.0312 14.932 58.7325 14.652C58.4338 14.3627 58.0232 14.218 57.5005 14.218C56.9032 14.218 56.4225 14.414 56.0585 14.806C55.7038 15.198 55.5265 15.7673 55.5265 16.514V20H54.0845ZM65.8618 20.196C65.1618 20.196 64.5505 20.0513 64.0278 19.762C63.5051 19.4633 63.0945 19.048 62.7958 18.516C62.5065 17.9747 62.3618 17.3493 62.3618 16.64V16.472C62.3618 15.7533 62.5065 15.128 62.7958 14.596C63.0851 14.0547 63.4865 13.6393 63.9998 13.35C64.5225 13.0513 65.1245 12.902 65.8058 12.902C66.4685 12.902 67.0471 13.0513 67.5418 13.35C68.0458 13.6393 68.4378 14.0453 68.7178 14.568C68.9978 15.0907 69.1378 15.702 69.1378 16.402V16.948H63.8318C63.8505 17.5547 64.0511 18.04 64.4338 18.404C64.8258 18.7587 65.3111 18.936 65.8898 18.936C66.4311 18.936 66.8371 18.8147 67.1078 18.572C67.3878 18.3293 67.6025 18.0493 67.7518 17.732L68.9418 18.348C68.8111 18.6093 68.6198 18.8847 68.3678 19.174C68.1251 19.4633 67.8031 19.706 67.4018 19.902C67.0005 20.098 66.4871 20.196 65.8618 20.196ZM63.8458 15.842H67.6678C67.6305 15.3193 67.4438 14.9133 67.1078 14.624C66.7718 14.3253 66.3331 14.176 65.7918 14.176C65.2505 14.176 64.8071 14.3253 64.4618 14.624C64.1258 14.9133 63.9205 15.3193 63.8458 15.842Z" fill="black"/>
</svg>
