<svg width="97" height="30" viewBox="0 0 97 30" fill="none" xmlns="http://www.w3.org/2000/svg">
<path d="M0 10C0 4.47715 4.47715 0 10 0H87C92.5229 0 97 4.47715 97 10V30H10C4.47715 30 0 25.5228 0 20V10Z" fill="#00C0E8"/>
<path d="M9.46341 20V10.2H13.3554C13.9527 10.2 14.4847 10.3213 14.9514 10.564C15.4274 10.7973 15.7961 11.1333 16.0574 11.572C16.3281 12.0013 16.4634 12.5193 16.4634 13.126V13.308C16.4634 13.9147 16.3234 14.4373 16.0434 14.876C15.7727 15.3147 15.4041 15.6507 14.9374 15.884C14.4707 16.1173 13.9434 16.234 13.3554 16.234H10.9754V20H9.46341ZM10.9754 14.862H13.2014C13.7334 14.862 14.1581 14.722 14.4754 14.442C14.7927 14.162 14.9514 13.7793 14.9514 13.294V13.154C14.9514 12.6593 14.7927 12.272 14.4754 11.992C14.1581 11.712 13.7334 11.572 13.2014 11.572H10.9754V14.862ZM17.941 20V10.2H19.383V14.078H19.607C19.7003 13.9007 19.831 13.728 19.999 13.56C20.1763 13.392 20.405 13.2567 20.685 13.154C20.9743 13.042 21.3383 12.986 21.777 12.986C22.2996 12.986 22.7616 13.1027 23.163 13.336C23.5736 13.5693 23.8956 13.9007 24.129 14.33C24.3623 14.75 24.479 15.2587 24.479 15.856V20H23.037V15.968C23.037 15.3707 22.8876 14.932 22.589 14.652C22.2903 14.3627 21.8796 14.218 21.357 14.218C20.7596 14.218 20.279 14.414 19.915 14.806C19.5603 15.198 19.383 15.7673 19.383 16.514V20H17.941ZM27.2429 22.8V21.54H31.0929C31.3542 21.54 31.4849 21.4 31.4849 21.12V18.992H31.2609C31.1769 19.1787 31.0462 19.3607 30.8689 19.538C30.7009 19.706 30.4722 19.846 30.1829 19.958C29.8935 20.07 29.5295 20.126 29.0909 20.126C28.5682 20.126 28.1015 20.0093 27.6909 19.776C27.2802 19.5427 26.9582 19.2113 26.7249 18.782C26.4915 18.3527 26.3749 17.844 26.3749 17.256V13.098H27.8169V17.144C27.8169 17.7413 27.9662 18.1847 28.2649 18.474C28.5635 18.754 28.9789 18.894 29.5109 18.894C30.0989 18.894 30.5702 18.698 30.9249 18.306C31.2889 17.914 31.4709 17.3447 31.4709 16.598V13.098H32.9129V21.414C32.9129 21.834 32.7869 22.17 32.5349 22.422C32.2922 22.674 31.9562 22.8 31.5269 22.8H27.2429ZM37.8725 20.196C36.9951 20.196 36.2671 20 35.6885 19.608C35.1098 19.216 34.7551 18.6233 34.6245 17.83L35.9685 17.508C36.0431 17.8907 36.1691 18.194 36.3465 18.418C36.5238 18.642 36.7431 18.8007 37.0045 18.894C37.2751 18.9873 37.5645 19.034 37.8725 19.034C38.3298 19.034 38.6798 18.9453 38.9225 18.768C39.1745 18.5907 39.3005 18.362 39.3005 18.082C39.3005 17.802 39.1838 17.5967 38.9505 17.466C38.7171 17.3353 38.3718 17.228 37.9145 17.144L37.4385 17.06C36.9718 16.976 36.5471 16.8547 36.1645 16.696C35.7818 16.5373 35.4785 16.318 35.2545 16.038C35.0305 15.758 34.9185 15.3987 34.9185 14.96C34.9185 14.3067 35.1611 13.8027 35.6465 13.448C36.1318 13.084 36.7758 12.902 37.5785 12.902C38.3531 12.902 38.9878 13.0793 39.4825 13.434C39.9865 13.7793 40.3131 14.2507 40.4625 14.848L39.1185 15.226C39.0345 14.806 38.8571 14.512 38.5865 14.344C38.3158 14.1667 37.9798 14.078 37.5785 14.078C37.1865 14.078 36.8785 14.1527 36.6545 14.302C36.4305 14.442 36.3185 14.6427 36.3185 14.904C36.3185 15.184 36.4258 15.3893 36.6405 15.52C36.8645 15.6507 37.1631 15.7487 37.5365 15.814L38.0265 15.898C38.5211 15.982 38.9738 16.0987 39.3845 16.248C39.7951 16.3973 40.1171 16.612 40.3505 16.892C40.5931 17.172 40.7145 17.5453 40.7145 18.012C40.7145 18.7027 40.4578 19.2393 39.9445 19.622C39.4311 20.0047 38.7405 20.196 37.8725 20.196ZM42.3999 20V13.098H43.8419V20H42.3999ZM43.1279 12.16C42.8479 12.16 42.6099 12.0713 42.4139 11.894C42.2273 11.7073 42.1339 11.4693 42.1339 11.18C42.1339 10.8907 42.2273 10.6573 42.4139 10.48C42.6099 10.2933 42.8479 10.2 43.1279 10.2C43.4173 10.2 43.6553 10.2933 43.8419 10.48C44.0286 10.6573 44.1219 10.8907 44.1219 11.18C44.1219 11.4693 44.0286 11.7073 43.8419 11.894C43.6553 12.0713 43.4173 12.16 43.1279 12.16ZM49.188 20.196C48.5253 20.196 47.9233 20.056 47.382 19.776C46.85 19.496 46.4253 19.09 46.108 18.558C45.8 18.026 45.646 17.3867 45.646 16.64V16.458C45.646 15.7113 45.8 15.0767 46.108 14.554C46.4253 14.022 46.85 13.616 47.382 13.336C47.9233 13.0467 48.5253 12.902 49.188 12.902C49.8506 12.902 50.4153 13.0233 50.882 13.266C51.3486 13.5087 51.722 13.8307 52.002 14.232C52.2913 14.6333 52.478 15.0767 52.562 15.562L51.162 15.856C51.1153 15.548 51.0173 15.268 50.868 15.016C50.7186 14.764 50.5086 14.5633 50.238 14.414C49.9673 14.2647 49.6266 14.19 49.216 14.19C48.8146 14.19 48.4506 14.2833 48.124 14.47C47.8066 14.6473 47.5546 14.9087 47.368 15.254C47.1813 15.59 47.088 16.0007 47.088 16.486V16.612C47.088 17.0973 47.1813 17.5127 47.368 17.858C47.5546 18.2033 47.8066 18.4647 48.124 18.642C48.4506 18.8193 48.8146 18.908 49.216 18.908C49.8226 18.908 50.2846 18.754 50.602 18.446C50.9193 18.1287 51.12 17.7273 51.204 17.242L52.604 17.564C52.492 18.04 52.2913 18.4787 52.002 18.88C51.722 19.2813 51.3486 19.6033 50.882 19.846C50.4153 20.0793 49.8506 20.196 49.188 20.196ZM57.0951 20.196C56.2178 20.196 55.4898 20 54.9111 19.608C54.3325 19.216 53.9778 18.6233 53.8471 17.83L55.1911 17.508C55.2658 17.8907 55.3918 18.194 55.5691 18.418C55.7465 18.642 55.9658 18.8007 56.2271 18.894C56.4978 18.9873 56.7871 19.034 57.0951 19.034C57.5525 19.034 57.9025 18.9453 58.1451 18.768C58.3971 18.5907 58.5231 18.362 58.5231 18.082C58.5231 17.802 58.4065 17.5967 58.1731 17.466C57.9398 17.3353 57.5945 17.228 57.1371 17.144L56.6611 17.06C56.1945 16.976 55.7698 16.8547 55.3871 16.696C55.0045 16.5373 54.7011 16.318 54.4771 16.038C54.2531 15.758 54.1411 15.3987 54.1411 14.96C54.1411 14.3067 54.3838 13.8027 54.8691 13.448C55.3545 13.084 55.9985 12.902 56.8011 12.902C57.5758 12.902 58.2105 13.0793 58.7051 13.434C59.2091 13.7793 59.5358 14.2507 59.6851 14.848L58.3411 15.226C58.2571 14.806 58.0798 14.512 57.8091 14.344C57.5385 14.1667 57.2025 14.078 56.8011 14.078C56.4091 14.078 56.1011 14.1527 55.8771 14.302C55.6531 14.442 55.5411 14.6427 55.5411 14.904C55.5411 15.184 55.6485 15.3893 55.8631 15.52C56.0871 15.6507 56.3858 15.7487 56.7591 15.814L57.2491 15.898C57.7438 15.982 58.1965 16.0987 58.6071 16.248C59.0178 16.3973 59.3398 16.612 59.5731 16.892C59.8158 17.172 59.9371 17.5453 59.9371 18.012C59.9371 18.7027 59.6805 19.2393 59.1671 19.622C58.6538 20.0047 57.9631 20.196 57.0951 20.196Z" fill="black"/>
<g clip-path="url(#clip0_1579_2295)">
<path d="M85.6667 18.2668C86.4768 18.1023 87.1969 17.6427 87.6872 16.9771C88.1774 16.3115 88.4029 15.4876 88.3198 14.6651C88.2368 13.8427 87.8511 13.0804 87.2376 12.5264C86.6241 11.9723 85.8267 11.666 85 11.6668H84.16C83.9392 10.8117 83.5094 10.0248 82.9093 9.37678C82.3092 8.72877 81.5576 8.23994 80.7219 7.95416C79.8862 7.66838 78.9927 7.59461 78.1215 7.73946C77.2502 7.88431 76.4286 8.24325 75.7304 8.78406C75.0321 9.32487 74.4791 10.0306 74.121 10.8379C73.7629 11.6452 73.6108 12.5289 73.6785 13.4094C73.7462 14.29 74.0316 15.14 74.5089 15.8831C74.9863 16.6262 75.6407 17.2391 76.4134 17.6668M81.6667 14.3335L79 18.3335H83L80.3334 22.3335" stroke="#1E1E1E" stroke-width="1.5" stroke-linecap="round" stroke-linejoin="round"/>
</g>
<defs>
<clipPath id="clip0_1579_2295">
<rect width="16" height="16" fill="white" transform="translate(73 7)"/>
</clipPath>
</defs>
</svg>
